<svg xmlns:xlink="http://www.w3.org/1999/xlink" xmlns="http://www.w3.org/2000/svg" style="--feynman-diagram-width: 440px;" aria-labelledby="feynman-title-0" viewBox="-12 -12 464 404" height="404" width="464" role="img" class="feynman-diagram__svg"><style>
      .feynman-diagram {
        margin: 1.25rem 0;
        overflow-x: auto;
      }

      .feynman-diagram__svg {
        display: block;
        width: min(100%, var(--feynman-diagram-width, 46rem));
        max-width: 46rem;
        height: auto;
        color: var(--md-typeset-color, #1f2933);
      }

      .feynman-diagram__edge {
        fill: none;
        stroke: currentColor;
        stroke-linecap: round;
        stroke-linejoin: round;
        stroke-width: 2.6;
      }

      .feynman-diagram__edge--scalar {
        stroke-dasharray: 7 6;
      }

      .feynman-diagram__edge--gluon {
        stroke-width: 2.1;
      }

      .feynman-diagram__edge--ghost {
        stroke-dasharray: 1 7;
      }

      .feynman-diagram__edge--dashed {
        stroke-dasharray: 10 7;
      }

      .feynman-diagram__edge--dashdot {
        stroke-dasharray: 11 6 1 6;
      }

      .feynman-diagram__edge--double {
        stroke-width: 2.1;
      }

      .feynman-diagram__junction-cap {
        fill: currentColor;
        stroke: none;
      }

      .feynman-diagram__brace {
        fill: none;
        stroke: currentColor;
        stroke-linecap: round;
        stroke-linejoin: round;
        stroke-width: 2.6;
      }

      .feynman-diagram__brace--tex {
        fill: currentColor;
        stroke: none;
      }

      .feynman-diagram__momentum-arrow {
        fill: none;
        stroke: currentColor;
        stroke-linecap: round;
        stroke-linejoin: round;
        stroke-width: 1.4;
      }

      .feynman-diagram__arrow,
      .feynman-diagram__vertex--dot,
      .feynman-diagram__vertex--square-dot {
        fill: currentColor;
      }

      .feynman-diagram__vertex {
        stroke: currentColor;
        stroke-width: 2.3;
      }

      .feynman-diagram__vertex--empty-dot {
        fill: var(--md-default-bg-color, #fff);
      }

      .feynman-diagram__vertex-backdrop {
        fill: var(--markfeyn-diagram-bg, var(--md-default-bg-color, #fff));
        stroke: none;
      }

      .feynman-diagram__vertex--blob {
        stroke-width: 2.8;
      }

      .feynman-diagram__vertex--blob-shaded {
        fill: currentColor;
        fill-opacity: 0.14;
      }

      .feynman-diagram__vertex--blob-hatched {
        fill-opacity: 1;
      }

      .feynman-diagram__hatch-fill {
        fill: currentColor;
        fill-opacity: 0.08;
        stroke: none;
      }

      .feynman-diagram__hatch-line {
        fill: none;
        stroke: currentColor;
        stroke-linecap: square;
        stroke-opacity: 0.55;
        stroke-width: 1.35;
      }

      .feynman-diagram__vertex-mark {
        stroke: currentColor;
        stroke-linecap: round;
        stroke-width: 2.4;
      }

      .feynman-diagram__label {
        fill: currentColor;
        font-family: "Latin Modern Math", "Latin Modern Roman", "Computer Modern Serif", "CMU Serif", "STIX Two Text", "Times New Roman", serif;
        font-size: 32px;
        font-style: italic;
      }

      .feynman-diagram__label--edge {
        font-size: 26px;
      }

      .feynman-diagram__label--brace {
        font-size: 26px;
      }

      .feynman-diagram__label--fallback {
        opacity: 0.92;
      }

      .feynman-diagram__label--mathjax {
        fill: currentColor;
      }

      .feynman-diagram__errors {
        color: var(--md-code-hl-special-color, #b00020);
        font-size: 0.75rem;
        margin-top: 0.25rem;
      }

      .feynman-diagram--loading {
        min-height: 9rem;
      }
    </style><title id="feynman-title-0">Feynman diagram</title><rect fill="#ffffff" rx="12" height="404" width="464" y="-12" x="-12" /><defs><marker markerUnits="strokeWidth" orient="auto" refY="4" refX="7" markerHeight="11" markerWidth="11" id="feynman-arrow-0"><path class="feynman-diagram__arrow" d="M0,0 L8,4 L0,8 Z" /></marker><pattern height="8" width="8" patternUnits="userSpaceOnUse" id="feynman-hatch-diagonal-0"><rect height="8" width="8" y="0" x="0" class="feynman-diagram__hatch-fill" /><path d="M -2 10 L 10 -2" class="feynman-diagram__hatch-line" /></pattern><pattern height="8" width="8" patternUnits="userSpaceOnUse" id="feynman-hatch-diagonal-reverse-0"><rect height="8" width="8" y="0" x="0" class="feynman-diagram__hatch-fill" /><path d="M -2 -2 L 10 10" class="feynman-diagram__hatch-line" /></pattern><pattern height="8" width="8" patternUnits="userSpaceOnUse" id="feynman-hatch-cross-0"><rect height="8" width="8" y="0" x="0" class="feynman-diagram__hatch-fill" /><path d="M -2 10 L 10 -2" class="feynman-diagram__hatch-line" /><path d="M -2 -2 L 10 10" class="feynman-diagram__hatch-line" /></pattern><pattern height="7" width="7" patternUnits="userSpaceOnUse" id="feynman-hatch-horizontal-0"><rect height="7" width="7" y="0" x="0" class="feynman-diagram__hatch-fill" /><path d="M 0 2 L 7 2" class="feynman-diagram__hatch-line" /></pattern><pattern height="7" width="7" patternUnits="userSpaceOnUse" id="feynman-hatch-vertical-0"><rect height="7" width="7" y="0" x="0" class="feynman-diagram__hatch-fill" /><path d="M 2 0 L 2 7" class="feynman-diagram__hatch-line" /></pattern><pattern height="8" width="8" patternUnits="userSpaceOnUse" id="feynman-hatch-grid-0"><rect height="8" width="8" y="0" x="0" class="feynman-diagram__hatch-fill" /><path d="M 0 2 L 8 2" class="feynman-diagram__hatch-line" /><path d="M 2 0 L 2 8" class="feynman-diagram__hatch-line" /></pattern></defs><g class="feynman-diagram__edge-group"><path d="M 82 328 L 220 328" class="feynman-diagram__edge feynman-diagram__edge--fermion" /><path d="M 160.33 328 L 146.33 333.5 L 146.33 322.5 Z" class="feynman-diagram__arrow" /></g><g class="feynman-diagram__edge-group"><path d="M 220 328 L 358 328" class="feynman-diagram__edge feynman-diagram__edge--fermion" /><path d="M 298.33 328 L 284.33 333.5 L 284.33 322.5 Z" class="feynman-diagram__arrow" /></g><path d="M 220 328 L 223.5 326.47 L 226.06 324.93 L 227 323.4 L 226.06 321.87 L 223.5 320.33 L 220 318.8 L 216.5 317.27 L 213.94 315.73 L 213 314.2 L 213.94 312.67 L 216.5 311.13 L 220 309.6 L 223.5 308.07 L 226.06 306.53 L 227 305 L 226.06 303.47 L 223.5 301.93 L 220 300.4 L 216.5 298.87 L 213.94 297.33 L 213 295.8 L 213.94 294.27 L 216.5 292.73 L 220 291.2 L 223.5 289.67 L 226.06 288.13 L 227 286.6 L 226.06 285.07 L 223.5 283.53 L 220 282 L 216.5 280.47 L 213.94 278.93 L 213 277.4 L 213.94 275.87 L 216.5 274.33 L 220 272.8 L 223.5 271.27 L 226.06 269.73 L 227 268.2 L 226.06 266.67 L 223.5 265.13 L 220 263.6 L 216.5 262.07 L 213.94 260.53 L 213 259 L 213.94 257.47 L 216.5 255.93 L 220 254.4 L 223.5 252.87 L 226.06 251.33 L 227 249.8 L 226.06 248.27 L 223.5 246.73 L 220 245.2 L 216.5 243.67 L 213.94 242.13 L 213 240.6 L 213.94 239.07 L 216.5 237.53 L 220 236 L 223.5 234.47 L 226.06 232.93 L 227 231.4 L 226.06 229.87 L 223.5 228.33 L 220 226.8 L 216.5 225.27 L 213.94 223.73 L 213 222.2 L 213.94 220.67 L 216.5 219.13 L 220 217.6 L 223.5 216.07 L 226.06 214.53 L 227 213 L 226.06 211.47 L 223.5 209.93 L 220 208.4 L 216.5 206.87 L 213.94 205.33 L 213 203.8 L 213.94 202.27 L 216.5 200.73 L 220 199.2 L 223.5 197.67 L 226.06 196.13 L 227 194.6 L 226.06 193.07 L 223.5 191.53 L 220 190 L 216.5 188.47 L 213.94 186.93 L 213 185.4 L 213.94 183.87 L 216.5 182.33 L 220 180.8 L 223.5 179.27 L 226.06 177.73 L 227 176.2 L 226.06 174.67 L 223.5 173.13 L 220 171.6 L 216.5 170.07 L 213.94 168.53 L 213 167 L 213.94 165.47 L 216.5 163.93 L 220 162.4 L 223.5 160.87 L 226.06 159.33 L 227 157.8 L 226.06 156.27 L 223.5 154.73 L 220 153.2 L 216.5 151.67 L 213.94 150.13 L 213 148.6 L 213.94 147.07 L 216.5 145.53 L 220 144 L 223.5 142.47 L 226.06 140.93 L 227 139.4 L 226.06 137.87 L 223.5 136.33 L 220 134.8 L 216.5 133.27 L 213.94 131.73 L 213 130.2 L 213.94 128.67 L 216.5 127.13 L 220 125.6 L 223.5 124.07 L 226.06 122.53 L 227 121 L 226.06 119.47 L 223.5 117.93 L 220 116.4 L 216.5 114.87 L 213.94 113.33 L 213 111.8 L 213.94 110.27 L 216.5 108.73 L 220 107.2 L 223.5 105.67 L 226.06 104.13 L 227 102.6 L 226.06 101.07 L 223.5 99.53 L 220 98 L 216.5 96.47 L 213.94 94.93 L 213 93.4 L 213.94 91.87 L 216.5 90.33 L 220 88.8 L 223.5 87.27 L 226.06 85.73 L 227 84.2 L 226.06 82.67 L 223.5 81.13 L 220 79.6 L 216.5 78.07 L 213.94 76.53 L 213 75 L 213.94 73.47 L 216.5 71.93 L 220 70.4 L 223.5 68.87 L 226.06 67.33 L 227 65.8 L 226.06 64.27 L 223.5 62.73 L 220 61.2 L 216.5 59.67 L 213.94 58.13 L 213 56.6 L 213.94 55.07 L 216.5 53.53 L 220 52" class="feynman-diagram__edge feynman-diagram__edge--photon" /><g class="feynman-diagram__edge-group"><path d="M 82 52 L 220 52" class="feynman-diagram__edge feynman-diagram__edge--fermion" /><path d="M 141.67 52 L 155.67 57.5 L 155.67 46.5 Z" class="feynman-diagram__arrow" /></g><g class="feynman-diagram__edge-group"><path d="M 220 52 L 358 52" class="feynman-diagram__edge feynman-diagram__edge--fermion" /><path d="M 279.67 52 L 293.67 57.5 L 293.67 46.5 Z" class="feynman-diagram__arrow" /></g><text aria-label="e-" dominant-baseline="middle" text-anchor="end" y="328" x="62" class="feynman-diagram__label feynman-diagram__label--incoming"><tspan>e</tspan><tspan font-size="82%" baseline-shift="super">−</tspan></text><text aria-label="e+" dominant-baseline="middle" text-anchor="end" y="52" x="62" class="feynman-diagram__label feynman-diagram__label--incoming"><tspan>e</tspan><tspan font-size="82%" baseline-shift="super">+</tspan></text><text aria-label="e-" dominant-baseline="middle" text-anchor="start" y="328" x="378" class="feynman-diagram__label feynman-diagram__label--outgoing"><tspan>e</tspan><tspan font-size="82%" baseline-shift="super">−</tspan></text><text aria-label="e+" dominant-baseline="middle" text-anchor="start" y="52" x="378" class="feynman-diagram__label feynman-diagram__label--outgoing"><tspan>e</tspan><tspan font-size="82%" baseline-shift="super">+</tspan></text><text aria-label="γ" dominant-baseline="middle" text-anchor="middle" y="190" x="188" class="feynman-diagram__label feynman-diagram__label--edge"><tspan>γ</tspan></text></svg>
